<svg width="104" height="86" viewBox="0 0 104 86" fill="none" xmlns="http://www.w3.org/2000/svg">
<path d="M75.1201 42.4024C74.7118 42.2047 74.2192 42.3765 74.0215 42.7848C74.0215 42.7848 54.6516 82.4385 55.2479 82.8015C55.896 83.1968 75.4993 43.501 75.4993 43.501C75.7002 43.0894 75.5284 42.6001 75.1201 42.4024Z" fill="url(#paint0_linear_23941_7786)"/>
<path d="M67.8473 38.2286C67.5297 38.0698 67.1408 38.1962 66.982 38.517C66.982 38.517 51.3357 69.4207 51.7992 69.7156C52.3015 70.0332 68.1325 39.0971 68.1325 39.0971C68.2945 38.773 68.1649 38.3874 67.8473 38.2286Z" fill="url(#paint1_linear_23941_7786)"/>
<path d="M69.3483 41.3851C69.1117 41.2717 68.8233 41.3689 68.7098 41.6087C68.7098 41.6087 57.458 64.7314 57.8047 64.9453C58.1807 65.1754 69.5719 42.0268 69.5719 42.0268C69.6853 41.7837 69.5848 41.4985 69.3483 41.3851Z" fill="url(#paint2_linear_23941_7786)"/>
<path d="M60.4844 65.7604C60.8603 65.9905 72.2516 42.8419 72.2516 42.8419C72.365 42.6053 72.2678 42.3169 72.0279 42.2035C71.7881 42.0901 71.5029 42.1873 71.3895 42.4271C71.3895 42.4239 60.1377 65.5465 60.4844 65.7604Z" fill="url(#paint3_linear_23941_7786)"/>
<path d="M76.9019 19.6914L74.75 23.8817C74.7824 23.9951 74.8148 24.1053 74.8407 24.2025L75.181 23.5414L76.513 24.2252L77.8449 24.909L77.0736 26.4127L76.419 27.6863C76.4579 27.7576 76.4935 27.8289 76.5259 27.9002L77.2454 26.5002L78.0167 24.9965L79.3486 25.6803L80.6806 26.3641L79.6403 28.3863L79.1347 29.3683L78.5935 29.0896L77.8028 28.6845L76.5972 28.0655C76.6653 28.2308 76.7042 28.3571 76.7042 28.3571C76.7139 28.3798 76.7269 28.3993 76.7398 28.4187L77.6894 28.9048L79.0213 29.5886L78.2208 31.1442C78.2694 31.1993 78.3213 31.2511 78.3699 31.2997L79.2028 29.6826L81.8667 31.0502L81.0954 32.5539L80.538 33.6363C80.5542 33.6558 80.5736 33.6784 80.5898 33.6979C80.6514 33.7821 80.7032 33.8534 80.7551 33.9215L82.3301 30.8558L85.7361 24.2252L81.3222 21.9567L76.9019 19.6914ZM77.9713 24.6595L76.6394 23.9757L75.3074 23.2919L76.0787 21.7882L76.85 20.2845L79.5139 21.6521L78.7426 23.1558L77.9713 24.6595ZM81.9769 30.8331L80.6449 30.1493L79.313 29.4655L80.0843 27.9618L80.8556 26.4581L82.1875 27.1419L83.5194 27.8257L81.9769 30.8331ZM83.863 23.8849L85.1949 24.5687L84.4236 26.0724L83.6523 27.5761L82.3204 26.8923L80.9884 26.2085L81.7597 24.7048L82.531 23.2011L83.863 23.8849ZM81.5782 24.6109L80.8069 26.1146L78.1431 24.747L79.6889 21.7396L82.3528 23.1071L81.5782 24.6109Z" fill="#9D5033"/>
<path d="M81.3215 21.9597L85.7354 24.2282L86.2086 24.0402L76.7812 19.1953L76.9044 19.6911L81.3215 21.9597Z" fill="#CE7250"/>
<path d="M81.4965 21.6194L76.7812 19.1953L86.2086 24.0402L81.4965 21.6194Z" fill="#CE7250"/>
<path d="M76.9019 19.6918L76.7788 19.1992L74.6172 23.4025C74.6561 23.558 74.7047 23.7233 74.7501 23.8821L76.9019 19.6918Z" fill="#8D472E"/>
<path d="M86.2042 24.041L85.731 24.229L82.325 30.8595L80.75 33.9253C80.8343 34.0387 80.9056 34.1392 80.9671 34.2396L82.6264 31.0118L86.2042 24.041Z" fill="#643322"/>
<path d="M76.9422 20.5918L76.9375 20.6012L76.9422 20.5918Z" fill="#9D5033"/>
<path d="M79.5233 21.6521L78.752 23.1558L79.5233 21.6521L76.8594 20.2812L78.1913 20.965L79.5233 21.6521Z" fill="#9D5033"/>
<path d="M78.5592 23.058L79.2235 21.7682L78.6986 21.4959C77.2078 20.8899 76.5078 21.5867 76.2907 21.8848L75.6328 23.1973L76.7509 23.7709L77.8916 24.3575L77.9791 24.6557L77.9013 24.3446L78.5592 23.058Z" fill="#9D5033"/>
<path d="M76.9404 20.5924L78.0358 21.1562L78.1459 21.2113L78.6969 21.4965L79.2251 21.7687L79.5233 21.6521L78.1913 20.965L76.8594 20.2812L76.9404 20.5924Z" fill="#CE7250"/>
<path d="M79.5221 21.6523L79.2239 21.769L78.5596 23.0588L77.8984 24.3486L77.9762 24.6598L78.7508 23.156L79.5221 21.6523Z" fill="#643322"/>
<path d="M76.7449 23.7748L75.6268 23.2012L75.3125 23.2887L76.6412 23.9725L77.9731 24.6595L77.8889 24.3614L76.7449 23.7748Z" fill="#82422B"/>
<path d="M76.2893 21.8854C76.2374 21.9567 76.2115 22.0086 76.2115 22.0086L76.9374 20.5988L76.9407 20.5924L76.8629 20.2812L76.0916 21.785L75.3203 23.2887L75.6379 23.1979L76.2893 21.8854Z" fill="#8D472E"/>
<path d="M78.1378 21.2121L78.0763 21.1797L78.0277 21.1537L76.9323 20.5898L76.929 20.5963L76.2031 22.006C76.2031 22.006 76.229 21.9574 76.2809 21.8829C76.498 21.5848 77.1948 20.8848 78.6888 21.494L78.1378 21.2121Z" fill="#CE7250"/>
<path d="M78.1414 21.2121L78.0312 21.1562L78.0766 21.1792L78.1414 21.2121Z" fill="#CE7250"/>
<path d="M78.1406 24.7461L80.8045 26.1137L79.4726 25.4299L78.1406 24.7461Z" fill="#9D5033"/>
<path d="M78.1406 24.7457L78.9119 23.242L79.6865 21.7383L81.0184 22.4221L82.3471 23.1059L79.6865 21.7383L78.1406 24.7457Z" fill="#9D5033"/>
<path d="M81.3951 24.5137L82.0595 23.2239L80.9187 22.6374L79.778 22.0508L79.7748 22.0573L79.778 22.0508L81.5345 22.9549C80.0437 22.3489 79.3437 23.0457 79.1266 23.3438L78.4688 24.6563L79.5868 25.2299L80.7275 25.8165L80.815 26.1147L80.7373 25.8036L81.3951 24.5137Z" fill="#9D5033"/>
<path d="M79.6875 21.7383L79.7653 22.0494L80.9093 22.636L82.05 23.2225L82.3481 23.1059L81.0194 22.4221L79.6875 21.7383Z" fill="#CE7250"/>
<path d="M81.3909 24.512L80.7266 25.8018L80.8076 26.1129L81.5789 24.6092L82.3502 23.1055L82.052 23.2221L81.3909 24.512Z" fill="#643322"/>
<path d="M79.573 25.2299L78.4582 24.6562L78.1406 24.747L79.4726 25.4308L80.8045 26.1146L80.717 25.8164L79.573 25.2299Z" fill="#82422B"/>
<path d="M78.4674 24.6549L79.1252 23.3424C79.0734 23.4137 79.0475 23.4656 79.0475 23.4656L79.7734 22.0559L79.7766 22.0494L79.6988 21.7383L78.9275 23.242L78.1562 24.7457L78.4674 24.6549Z" fill="#8D472E"/>
<path d="M79.1246 23.3438C79.3418 23.0457 80.0385 22.3457 81.5325 22.9549L79.776 22.0508L79.7728 22.0573L79.0469 23.467C79.0469 23.4637 79.0728 23.4151 79.1246 23.3438Z" fill="#CE7250"/>
<path d="M84.2389 25.9747L84.9033 24.6848L84.3783 24.4159C82.8875 23.8098 82.1875 24.5066 81.9704 24.8048L81.3125 26.1173L82.4306 26.6909L83.5713 27.2774L83.6588 27.5756L83.581 27.2645L84.2389 25.9747Z" fill="#9D5033"/>
<path d="M82.6141 23.5117L82.6094 23.5164L82.6141 23.5117Z" fill="#9D5033"/>
<path d="M82.6168 23.5123L84.3766 24.4164L84.9016 24.6854L85.1997 24.5688L83.8678 23.885L82.5391 23.2012L82.6168 23.5123Z" fill="#CE7250"/>
<path d="M84.2392 25.9748L83.5781 27.2647L83.6559 27.5758L84.4304 26.0721L85.2017 24.5684L84.9036 24.685L84.2392 25.9748Z" fill="#643322"/>
<path d="M82.4246 26.6908L81.3065 26.1172L80.9922 26.2079L83.6528 27.5755L83.5686 27.2774L82.4246 26.6908Z" fill="#82422B"/>
<path d="M82.3241 26.8928L83.6528 27.5766L80.9922 26.209L82.3241 26.8928Z" fill="#82422B"/>
<path d="M80.9922 26.2073L81.3098 26.1166L81.9676 24.8041C81.9158 24.8753 81.8899 24.9272 81.8899 24.9272L82.6158 23.5175L82.619 23.5142L82.5413 23.2031L81.77 24.7068L80.9922 26.2073Z" fill="#8D472E"/>
<path d="M84.3717 24.4159L82.6152 23.5117L82.6087 23.515L81.8828 24.9247C81.8828 24.9247 81.9087 24.8761 81.9606 24.8015C82.181 24.5066 82.8777 23.8066 84.3717 24.4159Z" fill="#CE7250"/>
<path d="M77.5522 25.0228L76.4115 24.4363L75.3064 23.8691L77.0272 24.7539C75.8962 24.2937 75.2221 24.5853 74.8656 24.8835C74.8559 24.8997 74.8462 24.9127 74.8365 24.9289L74.8332 24.9321C74.7911 24.9872 74.7457 25.039 74.6971 25.0941C74.6485 25.1492 74.6031 25.2076 74.561 25.2756C74.548 25.2951 74.5448 25.3145 74.548 25.3372C74.548 25.3437 74.5513 25.3502 74.5545 25.3566C74.5578 25.3696 74.5642 25.3858 74.574 25.3988C74.5772 25.402 74.5805 25.4085 74.5837 25.4117C74.5999 25.4312 74.6193 25.4506 74.6453 25.4701C74.6517 25.4733 74.6582 25.4765 74.6615 25.483C74.6842 25.4992 74.7068 25.5122 74.736 25.5284C75.0115 25.684 75.5073 25.8103 75.6337 25.8752C75.8249 25.9724 75.9092 26.1377 75.9318 26.708C75.9545 27.2752 75.948 27.0548 76.2332 27.3951C76.2559 27.421 76.2754 27.4502 76.2948 27.4793L76.8911 26.3191L77.5522 25.0228Z" fill="#9D5033"/>
<path d="M75.2656 23.8523L75.2703 23.8477L75.2656 23.8523Z" fill="#9D5033"/>
<path d="M75.2685 23.8482L75.3042 23.8677L76.4093 24.4348L77.5532 25.0214L77.8514 24.9047L76.5194 24.2209L75.1875 23.5371L75.2685 23.8482Z" fill="#CE7250"/>
<path d="M77.8479 24.9062L77.5497 25.0229L76.8854 26.3127L76.2891 27.4729C76.3344 27.5377 76.3798 27.609 76.4219 27.6803L77.0766 26.4067L77.8479 24.9062Z" fill="#643322"/>
<path d="M75.2618 23.8482L75.184 23.5371L74.8438 24.1982C74.8794 24.3214 74.9086 24.4283 74.9248 24.5061L75.2618 23.8515V23.8482Z" fill="#8D472E"/>
<path d="M77.021 24.7518L75.3001 23.8671L75.2645 23.8477L75.2612 23.8509L74.9242 24.5055C74.9307 24.5315 74.9339 24.5541 74.9372 24.5736C74.9566 24.6935 74.9177 24.7907 74.8594 24.8815C75.2159 24.5833 75.8899 24.2884 77.021 24.7518Z" fill="#CE7250"/>
<path d="M79.6406 28.3855L80.6809 26.3633L79.9096 27.867L79.6406 28.3855Z" fill="#9D5033"/>
<path d="M78.0984 25.3047L78.0938 25.3094L78.0984 25.3047Z" fill="#9D5033"/>
<path d="M79.1317 29.3673L78.5938 29.0918L79.1317 29.3673Z" fill="#9D5033"/>
<path d="M79.7155 27.7704L80.3798 26.4805L79.2391 25.894L78.1437 25.3301L79.8548 26.2116C78.3641 25.6055 77.6641 26.3023 77.4469 26.6004L76.7891 27.9129L77.9071 28.4866L79.0479 29.0731L79.1354 29.3713L79.0576 29.0602L79.7155 27.7704Z" fill="#9D5033"/>
<path d="M78.0934 25.3033L78.1388 25.326L79.2374 25.8899L80.3781 26.4764L80.6763 26.363L79.3443 25.676L78.0156 24.9922L78.0934 25.3033Z" fill="#CE7250"/>
<path d="M79.7158 27.7698L79.0547 29.0596L79.1325 29.3674L79.638 28.3855L79.907 27.867L80.6783 26.3633L80.3802 26.4767L79.7158 27.7698Z" fill="#643322"/>
<path d="M79.1356 29.3685L79.0481 29.0703L77.9074 28.4838L76.7894 27.9102L76.5625 27.975C76.5755 28.0074 76.5884 28.0365 76.6014 28.0657L78.5977 29.093L79.1356 29.3685Z" fill="#82422B"/>
<path d="M78.5979 29.0918L76.6016 28.0645L77.8039 28.6834L78.5979 29.0918Z" fill="#82422B"/>
<path d="M77.4484 26.597C77.3965 26.6683 77.3706 26.7202 77.3706 26.7202L78.0965 25.3104L78.0998 25.3072L78.022 24.9961L77.2507 26.4998L76.5312 27.8998C76.5442 27.9257 76.5539 27.9516 76.5669 27.9776L76.7937 27.9128L77.4484 26.597Z" fill="#8D472E"/>
<path d="M79.8606 26.2089L78.1495 25.3274L78.1042 25.3047L78.1009 25.3079L77.375 26.7177C77.375 26.7177 77.4009 26.669 77.4528 26.5945C77.6699 26.2996 78.3667 25.6028 79.8606 26.2089Z" fill="#CE7250"/>
<path d="M80.9372 26.7727L80.9404 26.7662L80.8594 26.4551L80.9404 26.7662L80.9372 26.7727Z" fill="#9D5033"/>
<path d="M81.9766 30.8316L83.5224 27.8242L82.7511 29.3279L81.9766 30.8316Z" fill="#9D5033"/>
<path d="M82.567 29.2318L83.2314 27.942L82.5443 27.5887L82.7064 27.6698C81.2156 27.0637 80.5156 27.7605 80.2985 28.0587L79.6406 29.3712L80.7587 29.9448L81.8994 30.5313L81.9869 30.8295L81.9091 30.5184L82.567 29.2318Z" fill="#9D5033"/>
<path d="M80.8594 26.4551L80.9404 26.7662L81.8186 27.2199L82.5381 27.5893L83.2251 27.9426L83.5233 27.8259L82.1913 27.1421L80.8594 26.4551Z" fill="#CE7250"/>
<path d="M82.5674 29.2307L81.9062 30.5205L81.984 30.8316L82.7586 29.3279L83.5299 27.8242L83.2317 27.9409L82.5674 29.2307Z" fill="#643322"/>
<path d="M80.7481 29.9467L79.6301 29.373L79.3125 29.4605L81.9764 30.8314L81.8889 30.5332L80.7481 29.9467Z" fill="#82422B"/>
<path d="M80.6444 30.1447L81.9764 30.8318L79.3125 29.4609L80.6444 30.1447Z" fill="#82422B"/>
<path d="M80.2893 28.058C80.2374 28.1293 80.2115 28.1811 80.2115 28.1811L80.9374 26.7714L80.9407 26.7681L80.8629 26.457L80.0916 27.9607L79.3203 29.4644L79.6379 29.3737L80.2893 28.058Z" fill="#8D472E"/>
<path d="M80.2109 28.1805C80.2109 28.1805 80.2369 28.1319 80.2887 28.0574C80.5058 27.7592 81.2026 27.0592 82.6966 27.6685L82.5345 27.5875L81.8151 27.218L80.9369 26.7676L80.9336 26.7708L80.2109 28.1805Z" fill="#CE7250"/>
<path d="M80.9375 26.7656L81.8157 27.2193L80.9375 26.7656Z" fill="#CE7250"/>
<path d="M79.0192 29.5918L78.2479 31.0955L78.2188 31.1474L79.0192 29.5918Z" fill="#9D5033"/>
<path d="M77.5806 29.1216L77.25 28.9531L78.1963 29.4392C77.8917 29.3161 77.6227 29.248 77.3796 29.2189C77.4509 29.4425 77.519 29.7763 77.7264 30.3175C77.8333 30.5994 77.95 30.8036 78.0732 30.9689L78.7213 29.7082L77.5806 29.1216Z" fill="#9D5033"/>
<path d="M78.7177 29.7084L79.0159 29.5918L77.6839 28.908L76.7344 28.4219C76.8316 28.5936 76.9515 28.7557 77.0844 28.8237C77.1557 28.8594 77.2043 28.9015 77.2432 28.9534L77.5737 29.1219L78.7177 29.7084Z" fill="#CE7250"/>
<path d="M79.0244 29.5918L78.7263 29.7085L78.0781 30.9691C78.1267 31.0339 78.1753 31.0955 78.224 31.1474L78.2499 31.0955L79.0244 29.5918Z" fill="#643322"/>
<path d="M77.25 28.9492C77.3051 29.0173 77.344 29.1015 77.3796 29.215C77.6227 29.2441 77.8917 29.3089 78.1963 29.4353L77.25 28.9492Z" fill="#CE7250"/>
<path d="M81.867 31.0531L79.2031 29.6855L80.5351 30.3693L81.867 31.0531Z" fill="#9D5033"/>
<path d="M80.9061 32.4603L81.5705 31.1705L81.0422 30.8983C79.5515 30.2923 78.8515 30.989 78.6344 31.2872L78.5469 31.4622C78.7381 31.6404 78.9358 31.8219 79.1237 32.12C79.3538 32.4798 79.6228 32.7552 79.8788 32.9918C79.9307 33.0404 79.9793 33.0858 80.0279 33.1312C80.0733 33.1733 80.1186 33.2154 80.1608 33.2543C80.1964 33.2867 80.2321 33.3191 80.2677 33.3515C80.3066 33.3872 80.3422 33.4261 80.3779 33.4617C80.3811 33.4649 80.3811 33.4649 80.3844 33.4682L80.9061 32.4603Z" fill="#9D5033"/>
<path d="M79.2046 29.6855L78.375 31.3027L78.4333 31.1892L79.2046 29.6855Z" fill="#9D5033"/>
<path d="M79.2859 29.9961L79.2812 30.0008L79.2859 29.9961Z" fill="#9D5033"/>
<path d="M79.2841 29.9967L80.8818 30.8166L81.0406 30.9008L81.5689 31.1698L81.867 31.0531L80.5351 30.3693L79.2031 29.6855L79.2841 29.9967Z" fill="#CE7250"/>
<path d="M81.8638 31.0527L81.5657 31.1694L80.9013 32.4592L80.3828 33.4703C80.4023 33.4898 80.4249 33.5092 80.4411 33.5287C80.4768 33.5643 80.506 33.6 80.5351 33.6388L81.0925 32.5564L81.8638 31.0527Z" fill="#643322"/>
<path d="M78.5532 31.4096L79.2792 29.9999L79.2824 29.9967L79.2046 29.6855L78.4333 31.1892L78.375 31.3027C78.4333 31.3578 78.4884 31.4129 78.5468 31.4647L78.6343 31.2897C78.5792 31.361 78.5532 31.4096 78.5532 31.4096Z" fill="#8D472E"/>
<path d="M79.2839 29.9961L79.2806 29.9993L78.5547 31.4091C78.5547 31.4091 78.5806 31.3604 78.6325 31.2859C78.8496 30.9878 79.5464 30.2878 81.0403 30.897L80.8815 30.816L79.2839 29.9961Z" fill="#CE7250"/>
<path d="M80.8828 30.8164L81.0416 30.9007L80.8828 30.8164Z" fill="#CE7250"/>
<path fill-rule="evenodd" clip-rule="evenodd" d="M80.4796 34.2847C80.0842 34.0676 79.9254 33.6236 79.5916 33.3352C79.3874 33.1569 78.5416 32.3889 78.3212 32.2268C78.1948 32.1328 78.0944 31.9546 77.9777 31.7375C77.7638 31.5365 77.537 31.3129 77.4527 31.206C77.2777 30.9824 76.9958 30.8495 76.5064 30.6453C76.0171 30.4412 76.0138 30.3796 75.612 30.0296C75.2101 29.6796 74.7078 29.6245 74.6722 29.524C74.6398 29.4236 73.9009 28.6426 73.6448 28.4384C73.3856 28.2342 72.6532 28.0365 72.5236 28.0333C72.3972 28.0268 72.53 28.0236 72.543 27.6801C72.556 27.4273 72.4944 27.1842 72.462 27.0773L72.4847 27.0352L67.8828 35.9893L77.5888 40.9768L81.011 34.3203L80.8685 34.599C80.7421 34.5342 80.5962 34.3495 80.4796 34.2847Z" fill="#EE313E"/>
<path d="M67.8865 35.9868L67.4451 36.8457L77.1527 41.8349L77.5941 40.9759L67.8865 35.9868Z" fill="#BB2030"/>
<path d="M72.5208 26.9668L72.4844 27.0364L72.5208 26.9668Z" fill="#EAEAEA"/>
<path d="M73.8943 23.5801C73.8716 23.6417 73.8521 23.7032 73.8359 23.7648C73.8554 23.7032 73.8748 23.6417 73.8943 23.5801Z" fill="#EAEAEA"/>
<path d="M73.6753 24.623C73.6753 24.6264 73.6753 24.6331 73.6719 24.6365C73.6719 24.6331 73.6719 24.6331 73.6719 24.6298C73.6753 24.6298 73.6753 24.6264 73.6753 24.623Z" fill="#EAEAEA"/>
<path d="M74.8328 24.9258L74.8281 24.9305L74.8328 24.9258Z" fill="#9D5033"/>
<path d="M74.8328 24.9258L74.8281 24.9305L74.8328 24.9258Z" fill="#EAEAEA"/>
<path d="M74.5391 25.332C74.5391 25.3389 74.5425 25.3424 74.5425 25.3493C74.5425 25.3527 74.546 25.3527 74.546 25.3562C74.5425 25.3493 74.5391 25.3424 74.5391 25.332Z" fill="#9D5033"/>
<path d="M74.5391 25.332C74.5391 25.3389 74.5425 25.3424 74.5425 25.3493C74.5425 25.3527 74.546 25.3527 74.546 25.3562C74.5425 25.3493 74.5391 25.3424 74.5391 25.332Z" fill="#EAEAEA"/>
<path d="M80.375 33.4648C80.3797 33.4696 80.3797 33.4696 80.3844 33.4743C80.3797 33.4696 80.3797 33.4696 80.375 33.4648Z" fill="#9D5033"/>
<path d="M80.375 33.4648C80.3797 33.4696 80.3797 33.4696 80.3844 33.4743C80.3797 33.4696 80.3797 33.4696 80.375 33.4648Z" fill="#EAEAEA"/>
<path d="M80.3828 33.4707C80.4027 33.4906 80.4259 33.5105 80.4425 33.5304C80.4226 33.5105 80.4027 33.4906 80.3828 33.4707Z" fill="#643322"/>
<path d="M80.3828 33.4707C80.4027 33.4906 80.4259 33.5105 80.4425 33.5304C80.4226 33.5105 80.4027 33.4906 80.3828 33.4707Z" fill="#EAEAEA"/>
<path fill-rule="evenodd" clip-rule="evenodd" d="M80.2822 33.7818C80.091 33.5517 79.916 33.26 79.7086 33.0818C79.5044 32.9035 78.6586 32.1355 78.4382 31.9735C78.3118 31.8795 78.2113 31.7012 78.0947 31.4841C77.8808 31.2832 77.6539 31.0596 77.5697 30.9526C77.3947 30.729 77.1127 30.5961 76.6234 30.392C76.134 30.1878 76.1308 30.1262 75.7289 29.7762C75.3271 29.4262 74.8248 29.3711 74.7891 29.2707C74.7567 29.1702 74.0178 28.3892 73.7618 28.185C73.5025 27.9809 72.7701 27.7832 72.6405 27.7799C72.5141 27.7735 72.647 27.7702 72.66 27.4267C72.6762 27.0832 72.5595 26.7623 72.5595 26.7623C72.5595 26.7623 72.5595 26.7591 72.5595 26.7559C72.5692 26.8725 72.5271 26.96 72.5238 26.9665L72.4914 27.0313L72.4688 27.0735C72.5012 27.1836 72.5627 27.4235 72.5498 27.6762C72.5336 28.0197 72.4007 28.023 72.5303 28.0295C72.6567 28.036 73.3924 28.2304 73.6516 28.4346C73.9109 28.6387 74.6465 29.4197 74.6789 29.5202C74.7113 29.6207 75.2169 29.6758 75.6187 30.0258C76.0206 30.3758 76.0238 30.4406 76.5132 30.6415C77.0025 30.8457 77.2845 30.9785 77.4595 31.2022C77.5437 31.3091 77.7706 31.5295 77.9845 31.7336C78.1012 31.9508 78.2016 32.1322 78.328 32.223C78.5484 32.385 79.3942 33.1531 79.5984 33.3313C79.9289 33.6197 80.091 34.0605 80.4863 34.2809C80.603 34.3457 80.7488 34.5336 80.8785 34.592L81.0211 34.3133C81.0178 34.3165 80.4701 34.0119 80.2822 33.7818Z" fill="#EE313E"/>
<path d="M80.2822 33.7818C80.091 33.5517 79.916 33.26 79.7086 33.0818C79.5044 32.9035 78.6586 32.1355 78.4382 31.9735C78.3118 31.8795 78.2113 31.7012 78.0947 31.4841C77.8808 31.2832 77.6539 31.0596 77.5697 30.9526C77.3947 30.729 77.1127 30.5961 76.6234 30.392C76.134 30.1878 76.1308 30.1262 75.7289 29.7762C75.3271 29.4262 74.8248 29.3711 74.7891 29.2707C74.7567 29.1702 74.0178 28.3892 73.7618 28.185C73.5025 27.9809 72.7701 27.7832 72.6405 27.7799C72.5141 27.7735 72.647 27.7702 72.66 27.4267C72.6762 27.0832 72.5595 26.7623 72.5595 26.7623C72.5595 26.7623 72.5595 26.7591 72.5595 26.7559C72.5692 26.8725 72.5271 26.96 72.5238 26.9665L72.4914 27.0313L72.4688 27.0735C72.5012 27.1836 72.5627 27.4235 72.5498 27.6762C72.5336 28.0197 72.4007 28.023 72.5303 28.0295C72.6567 28.036 73.3924 28.2304 73.6516 28.4346C73.9109 28.6387 74.6465 29.4197 74.6789 29.5202C74.7113 29.6207 75.2169 29.6758 75.6187 30.0258C76.0206 30.3758 76.0238 30.4406 76.5132 30.6415C77.0025 30.8457 77.2845 30.9785 77.4595 31.2022C77.5437 31.3091 77.7706 31.5295 77.9845 31.7336C78.1012 31.9508 78.2016 32.1322 78.328 32.223C78.5484 32.385 79.3942 33.1531 79.5984 33.3313C79.9289 33.6197 80.091 34.0605 80.4863 34.2809C80.603 34.3457 80.7488 34.5336 80.8785 34.592L81.0211 34.3133C81.0178 34.3165 80.4701 34.0119 80.2822 33.7818Z" fill="#EAEAEA"/>
<path fill-rule="evenodd" clip-rule="evenodd" d="M73.7565 24.1246C73.7565 24.1343 73.7532 24.144 73.7532 24.1505C73.7532 24.1537 73.7532 24.1602 73.75 24.1635C73.7565 24.1181 73.7662 24.0727 73.7759 24.0273C73.7662 24.063 73.7597 24.0954 73.7565 24.1246Z" fill="#BB2030"/>
<path fill-rule="evenodd" clip-rule="evenodd" d="M73.6752 24.6356C73.6752 24.6422 73.6719 24.6522 73.6719 24.6588C73.6752 24.6488 73.6752 24.6389 73.6786 24.6289C73.6752 24.6322 73.6752 24.6356 73.6752 24.6356Z" fill="#BB2030"/>
<path fill-rule="evenodd" clip-rule="evenodd" d="M73.7019 24.5103C73.6986 24.5266 73.6986 24.5397 73.6953 24.5528C73.6986 24.5364 73.6986 24.5234 73.7019 24.5103C73.7019 24.507 73.7019 24.507 73.7019 24.5103Z" fill="#BB2030"/>
<path fill-rule="evenodd" clip-rule="evenodd" d="M73.7317 24.2933C73.7317 24.303 73.7285 24.3095 73.7285 24.316C73.7252 24.3387 73.722 24.3613 73.7188 24.3808C73.7252 24.3289 73.735 24.2738 73.7414 24.2188C73.7414 24.2447 73.7349 24.2674 73.7317 24.2933Z" fill="#BB2030"/>
<path fill-rule="evenodd" clip-rule="evenodd" d="M74.5469 25.3496C74.5501 25.366 74.56 25.3823 74.5698 25.3987C74.56 25.3856 74.5534 25.3692 74.5501 25.3562C74.5501 25.3529 74.5469 25.3529 74.5469 25.3496Z" fill="#BB2030"/>
<path fill-rule="evenodd" clip-rule="evenodd" d="M72.6578 27.4261C72.6416 27.7696 72.5087 27.7729 72.6383 27.7793C72.7647 27.7858 73.5004 27.9803 73.7596 28.1844C74.0189 28.3886 74.7545 29.1696 74.7869 29.2701C74.8193 29.3705 75.3249 29.4256 75.7267 29.7756C76.1286 30.1256 76.1318 30.1905 76.6212 30.3914C77.1105 30.5955 77.3925 30.7284 77.5675 30.952C77.6517 31.059 77.8786 31.2793 78.0925 31.4835C78.0082 31.3215 77.9142 31.14 77.7976 30.9553C77.7814 30.9261 77.7587 30.8969 77.7328 30.8645C77.723 30.8516 77.7101 30.8386 77.7004 30.8289C77.6809 30.8062 77.6647 30.7867 77.642 30.7608C77.6291 30.7446 77.6129 30.7317 77.5967 30.7155C77.574 30.6928 77.5545 30.6701 77.5318 30.6474C77.5124 30.628 77.4929 30.6117 77.4735 30.5923C77.4508 30.5696 77.4281 30.5469 77.4054 30.5242C77.3828 30.5048 77.3601 30.4821 77.3406 30.4627C77.3147 30.44 77.292 30.4173 77.2661 30.3946C77.2434 30.3752 77.2207 30.3525 77.1948 30.3298C77.1689 30.3039 77.1397 30.2812 77.1138 30.2553C77.0911 30.2358 77.0684 30.2131 77.0457 30.1937C77.0133 30.1678 76.9841 30.1386 76.9517 30.1127C76.9323 30.0932 76.9096 30.077 76.8902 30.0576C76.8545 30.0252 76.8189 29.996 76.7832 29.9636L76.78 29.9604C76.3619 29.5974 75.9374 29.2344 75.7494 29.0076C75.6457 28.8844 75.4902 28.7224 75.3184 28.5409C75.3022 28.5247 75.2828 28.502 75.2666 28.4858C75.205 28.4242 75.1466 28.3594 75.0818 28.2914C75.0429 28.2525 75.0073 28.2104 74.9684 28.1682C74.9133 28.1099 74.8615 28.0516 74.8064 27.99C74.7966 27.977 74.7837 27.9673 74.774 27.9543C74.4337 27.5687 74.1064 27.1409 73.9443 26.7229C73.5976 25.8414 73.3966 25.4784 73.4355 25.2159C73.4647 25.015 73.5814 24.8335 73.6332 24.7622C73.6462 24.7492 73.6559 24.7363 73.6591 24.7266C73.6527 24.7395 73.6397 24.7557 73.6203 24.7719C73.6138 24.7784 73.6105 24.7817 73.6041 24.7881C73.4517 24.9275 73.011 25.177 72.6091 25.1155C72.1392 25.0442 71.3906 25.459 71.3906 25.459C71.3906 25.459 71.5267 25.4752 71.6791 25.5335C71.7277 25.553 71.7763 25.5756 71.8249 25.6048C71.8346 25.608 71.8411 25.6145 71.8476 25.621C71.8962 25.6534 71.9448 25.6891 71.9869 25.7312C72.0906 25.8446 72.2041 26.0229 72.3013 26.1914C72.3499 26.2756 72.3953 26.3599 72.4309 26.4344C72.4698 26.509 72.499 26.5738 72.5184 26.6192C72.5411 26.6678 72.5476 26.7131 72.5508 26.7553C72.5508 26.7553 72.5508 26.7585 72.5508 26.7617C72.5573 26.7585 72.674 27.0826 72.6578 27.4261Z" fill="#BB2030"/>
<path d="M73.4345 25.2131C73.3956 25.4789 73.5965 25.8419 73.9433 26.7201C74.1085 27.1381 74.4359 27.5659 74.7729 27.9516C74.7761 27.9483 74.9544 27.8317 75.2298 27.7701C75.5085 27.7085 75.4664 27.4849 75.6058 27.2256C75.7451 26.9664 75.7224 26.5419 75.6673 26.3442C75.6122 26.1465 75.3595 25.9974 75.2331 26.0622C75.1099 26.127 75.1002 25.9909 75.0937 25.9196C75.0872 25.8483 74.8118 25.8192 74.6659 25.7414C74.5201 25.6636 74.5104 25.6539 74.4877 25.5307C74.4618 25.4076 74.4618 25.4821 74.3127 25.5599C74.1636 25.6409 73.9011 26.1238 73.9011 26.1238C73.9011 26.1238 74.0664 25.615 74.034 25.5145C74.0016 25.4141 74.303 25.1094 74.3678 24.9604C74.4326 24.8113 74.6206 24.6298 74.4845 24.4257C74.3484 24.2215 74.6044 24.1469 74.4909 23.9428C74.3775 23.7386 74.384 23.6932 74.3775 23.2428C74.3743 23.0094 74.4294 22.7956 74.4845 22.6465C74.3937 22.7081 74.1766 22.9965 73.9919 23.3562C73.9562 23.4243 73.9271 23.4988 73.8979 23.5766C73.8752 23.6382 73.8558 23.6997 73.8396 23.7645C73.8396 23.7678 73.8396 23.7678 73.8363 23.771C73.8363 23.7743 73.8331 23.7775 73.8331 23.7807C73.8169 23.8423 73.8007 23.9039 73.7877 23.9655C73.7845 23.9849 73.778 24.0044 73.7747 24.027C73.765 24.0724 73.7585 24.1178 73.7488 24.1632C73.7456 24.1794 73.7423 24.1988 73.7391 24.215C73.7294 24.2701 73.7229 24.3284 73.7164 24.377C73.7099 24.4224 73.7034 24.4613 73.7002 24.5002V24.5034C73.697 24.5196 73.697 24.5358 73.6937 24.5488C73.6905 24.578 73.6872 24.6007 73.6808 24.6233C73.6808 24.6266 73.6808 24.6266 73.6808 24.6298C73.6775 24.6395 73.6775 24.6493 73.6743 24.659C73.6678 24.6849 73.6646 24.7076 73.6581 24.7206C73.6516 24.7303 73.6451 24.7432 73.6322 24.7562C73.5771 24.834 73.4636 25.0122 73.4345 25.2131Z" fill="#CCCCCC"/>
<path d="M76.7724 29.9619C76.7983 29.7545 76.8243 29.5341 76.8437 29.3397C76.9085 28.7077 76.1826 27.8327 76.1048 27.6642C76.027 27.4957 75.9039 27.4536 75.6382 27.8652C75.3724 28.28 75.5507 28.0337 75.3724 28.2605C75.3108 28.3383 75.2979 28.4388 75.3076 28.5392C75.4826 28.7207 75.6349 28.8795 75.7386 29.0059C75.9331 29.2327 76.3576 29.5957 76.7724 29.9619Z" fill="#CCCCCC"/>
<path d="M80.5919 33.7005C80.5757 33.681 80.5563 33.6584 80.5401 33.6389C80.5109 33.6033 80.4817 33.5676 80.4461 33.5287C80.4266 33.5093 80.4072 33.4898 80.3877 33.4704C80.3845 33.4672 80.3845 33.4672 80.3813 33.4639C80.3456 33.4283 80.31 33.3894 80.2711 33.3537C80.2387 33.3213 80.1998 33.2889 80.1641 33.2565C80.122 33.2176 80.0766 33.1755 80.0313 33.1334C79.9826 33.088 79.9308 33.0426 79.8822 32.994C79.6262 32.7574 79.3572 32.482 79.1271 32.1223C78.9359 31.8241 78.7414 31.6394 78.5502 31.4644C78.4919 31.4093 78.4336 31.3574 78.3785 31.3023C78.3266 31.2537 78.278 31.2019 78.2294 31.1468C78.1808 31.0917 78.1322 31.0334 78.0836 30.9685C77.9604 30.8033 77.8438 30.5991 77.7368 30.3172C77.5294 29.776 77.4581 29.4422 77.3901 29.2185C77.3544 29.1051 77.3155 29.0176 77.2604 28.9528C77.2183 28.901 77.1697 28.8588 77.1016 28.8232C76.9688 28.7551 76.8488 28.5931 76.7516 28.4213C76.7387 28.4019 76.7257 28.3792 76.716 28.3598C76.716 28.3598 76.6771 28.2334 76.609 28.0681C76.5961 28.0389 76.5863 28.0098 76.5701 27.9773C76.5604 27.9514 76.5475 27.9255 76.5345 27.8996C76.5021 27.8283 76.4664 27.757 76.4276 27.6857C76.3887 27.6111 76.3433 27.5431 76.2947 27.4783C76.2752 27.4491 76.2558 27.4199 76.2331 27.394C75.9479 27.0537 75.9544 27.2741 75.9317 26.707C75.909 26.1398 75.8248 25.9746 75.6336 25.8741C75.5072 25.8093 75.0113 25.6797 74.7359 25.5273C74.71 25.5111 74.684 25.4982 74.6613 25.482C74.6549 25.4787 74.6484 25.4755 74.6451 25.469C74.6192 25.4496 74.5998 25.4301 74.5836 25.4107C74.5803 25.4074 74.5771 25.401 74.5738 25.3977C74.5641 25.3815 74.5544 25.3653 74.5512 25.3491C74.5512 25.3426 74.5479 25.3394 74.5479 25.3329C74.5479 25.3135 74.5479 25.294 74.5609 25.2713C74.5998 25.2065 74.6484 25.1482 74.697 25.0898C74.7456 25.0348 74.791 24.9797 74.8331 24.9278C74.8331 24.9278 74.8331 24.9246 74.8363 24.9246C74.8461 24.9116 74.8558 24.8954 74.8655 24.8792C74.9238 24.7885 74.9627 24.6945 74.9433 24.5713C74.94 24.5519 74.9368 24.5292 74.9303 24.5033C74.9141 24.4287 74.885 24.3218 74.8493 24.1954C74.8201 24.0982 74.791 23.988 74.7586 23.8746C74.7132 23.7158 74.6678 23.5505 74.6257 23.3949C74.5447 23.0838 74.4896 22.8051 74.522 22.7047C74.5317 22.6755 74.5317 22.6593 74.5317 22.6463C74.5317 22.6431 74.5317 22.6398 74.5317 22.6398C74.5285 22.6301 74.522 22.6269 74.5123 22.6301C74.509 22.6301 74.509 22.6334 74.5058 22.6334C74.4993 22.6366 74.4961 22.6366 74.4896 22.6398V22.6431C74.4345 22.7954 74.3794 23.006 74.3826 23.2394C74.3891 23.6898 74.3826 23.7352 74.4961 23.9394C74.6095 24.1435 74.3535 24.2181 74.4896 24.4223C74.6257 24.6264 74.4377 24.8079 74.3729 24.957C74.3081 25.106 74.0067 25.4107 74.0391 25.5111C74.0715 25.6116 73.9062 26.1204 73.9062 26.1204C73.9062 26.1204 74.1655 25.6375 74.3178 25.5565C74.4669 25.4755 74.4701 25.4042 74.4928 25.5273C74.5188 25.6505 74.5285 25.6602 74.6711 25.738C74.8169 25.8158 75.0924 25.8449 75.0988 25.9162C75.1053 25.9875 75.115 26.1204 75.2382 26.0588C75.3613 25.994 75.6141 26.1431 75.6725 26.3408C75.7276 26.5385 75.7535 26.963 75.6109 27.2223C75.4715 27.4848 75.5137 27.7051 75.235 27.7667C74.9595 27.8283 74.7813 27.9449 74.778 27.9482C74.7877 27.9611 74.8007 27.9709 74.8104 27.9838C74.8655 28.0454 74.9174 28.1037 74.9725 28.1621C75.0113 28.2042 75.047 28.2463 75.0859 28.2852C75.1507 28.3533 75.209 28.4148 75.2706 28.4797C75.2868 28.4991 75.3063 28.5185 75.3225 28.5348C75.3127 28.4343 75.3257 28.3338 75.3873 28.256C75.5655 28.0292 75.384 28.2723 75.653 27.8607C75.9188 27.4459 76.0419 27.4912 76.1197 27.6598C76.1975 27.8283 76.9201 28.7033 76.8586 29.3352C76.8391 29.5297 76.8132 29.75 76.7873 29.9574L76.7905 29.9607C76.8262 29.9931 76.8618 30.0223 76.8975 30.0547C76.9169 30.0741 76.9396 30.0903 76.959 30.1098C76.9914 30.1389 77.0206 30.1648 77.053 30.1908C77.0757 30.2102 77.0984 30.2329 77.1211 30.2523C77.1502 30.2783 77.1762 30.301 77.2021 30.3269C77.2248 30.3463 77.2507 30.369 77.2734 30.3917C77.2993 30.4144 77.322 30.4371 77.3479 30.4598C77.3706 30.4792 77.3933 30.5019 77.4127 30.5213C77.4387 30.544 77.4581 30.5667 77.4808 30.5894C77.5002 30.6088 77.5197 30.6283 77.5391 30.6445C77.5618 30.6672 77.5845 30.6898 77.6039 30.7125C77.6169 30.7287 77.6331 30.7449 77.6493 30.7579C77.672 30.7806 77.6882 30.8033 77.7076 30.826C77.7174 30.8389 77.7303 30.8519 77.7401 30.8616C77.766 30.894 77.7887 30.9232 77.8049 30.9523C77.9215 31.1371 78.0155 31.3185 78.0998 31.4806C78.2164 31.6977 78.3169 31.8792 78.4433 31.9699C78.6637 32.132 79.5095 32.9 79.7137 33.0783C79.9178 33.2565 80.0961 33.5482 80.2873 33.7783C80.4785 34.0084 81.0262 34.3162 81.0262 34.3162C81.01 34.2903 80.9938 34.2644 80.9776 34.2385C80.916 34.1348 80.8447 34.0375 80.7604 33.9241C80.7053 33.856 80.6535 33.7848 80.5919 33.7005Z" fill="#E6E6E5"/>
<path d="M76.7781 29.9656L76.7734 29.9609C76.7781 29.9609 76.7781 29.9609 76.7781 29.9656Z" fill="#E6E6E5"/>
<path d="M35.4385 36.5818C35.0533 36.3922 34.5869 36.5517 34.3973 36.9399C34.3973 36.9399 15.8873 74.4352 16.4501 74.7813C17.061 75.1575 35.7966 37.623 35.7966 37.623C35.9862 37.2348 35.8267 36.7683 35.4385 36.5818Z" fill="url(#paint4_linear_23941_7786)"/>
<path d="M27.7979 34.0134C27.4127 33.8238 26.9463 33.9833 26.7567 34.3715C26.7567 34.3715 8.24672 71.8669 8.80945 72.213C9.42033 72.5891 28.156 35.0546 28.156 35.0546C28.3426 34.6694 28.1831 34.203 27.7979 34.0134Z" fill="url(#paint5_linear_23941_7786)"/>
<path d="M23.7246 54.076C24.0075 54.2506 32.6561 36.9202 32.6561 36.9202C32.7434 36.7427 32.6682 36.526 32.4906 36.4388C32.3131 36.3515 32.0964 36.4267 32.0091 36.6043C32.0091 36.6073 23.4628 53.9165 23.7246 54.076Z" fill="url(#paint6_linear_23941_7786)"/>
<path d="M30.8344 34.8118C30.6568 34.7245 30.4402 34.7998 30.3529 34.9773C30.3529 34.9773 21.8066 52.2866 22.0684 52.4461C22.3513 52.6206 30.9999 35.2903 30.9999 35.2903C31.0871 35.1127 31.0119 34.8991 30.8344 34.8118Z" fill="url(#paint7_linear_23941_7786)"/>
<path d="M26.6092 31.9593C26.6965 31.7818 26.6213 31.5651 26.4437 31.4778C26.2662 31.3905 26.0495 31.4658 25.9623 31.6433C25.9623 31.6433 17.416 48.9526 17.6778 49.1121C17.9606 49.2866 26.6092 31.9593 26.6092 31.9593Z" fill="url(#paint8_linear_23941_7786)"/>
<path d="M31.7915 32.6471C31.9089 32.6862 32.0292 32.7133 32.1526 32.7193C32.589 32.7344 32.7304 33.0112 32.7304 33.0112C32.9049 33.258 33.1035 33.4566 33.3112 33.6191C34.0966 34.233 35.1528 34.3804 36.1008 34.0645C41.0028 32.4274 42.035 28.8073 42.2306 26.9175C42.357 25.6807 41.6619 23.9864 40.5785 23.3726C39.3839 22.6955 38.0026 22.7075 37.5693 22.7286H37.5663C37.479 22.7346 37.4278 22.7376 37.4278 22.7376L37.5452 22.6985L37.2593 22.2892C37.0968 22.0665 37.0306 21.9793 36.9674 21.889C35.1679 19.3763 31.9058 19.1957 29.8626 21.5068C28.9809 22.5059 28.379 23.6735 28.054 24.9614C27.9577 25.3406 27.8795 25.7168 27.8193 26.0959C27.6447 30.9288 30.8917 32.3492 31.7915 32.6471Z" fill="#EF4458"/>
<path d="M37.5756 22.7288H37.5786L37.705 22.7018C38.4212 21.2061 38.3399 18.8379 38.3068 18.248C37.9397 18.2842 37.5997 18.3173 37.2716 18.3504C37.3318 19.0274 37.4281 19.6564 37.4281 20.2853C37.4281 20.9082 37.3318 21.5311 37.2656 22.2895L37.5515 22.6987L37.5756 22.7288Z" fill="#45B75A"/>
<path d="M38.5499 21.1889C38.553 21.1797 38.553 21.1674 38.5561 21.1582C38.553 21.1674 38.5499 21.1766 38.5469 21.1858C38.5469 21.1858 38.5469 21.1889 38.5499 21.1889Z" fill="#EF484F"/>
<path d="M37.4375 22.7383C37.4375 22.7383 37.4887 22.7323 37.5759 22.7293L37.5549 22.6992L37.4375 22.7383Z" fill="#B73651"/>
<path d="M37.5777 22.7308C38.011 22.7068 39.3923 22.6977 40.587 23.3748C41.6703 23.9887 42.3654 25.6829 42.239 26.9197C42.0434 28.8095 41.0113 32.4297 36.1092 34.0667C35.1613 34.3827 34.108 34.2382 33.3196 33.6213C33.112 33.4588 32.9134 33.2602 32.7388 33.0135C32.7388 33.0135 32.5974 32.7366 32.161 32.7216C32.0377 32.7186 31.9173 32.6885 31.7999 32.6493C30.9002 32.3484 27.6532 30.9281 27.8247 26.0952C27.5208 27.9368 27.6381 29.7605 28.4687 31.5209C29.1247 32.9081 30.211 33.7477 31.8029 33.835C31.9745 33.844 32.1881 33.9253 32.2965 34.0487C33.5483 35.454 35.1101 35.7037 36.7802 35.0959C39.9941 33.9253 42.1608 31.6834 43.0756 28.3642C43.5902 26.4924 43.184 24.7892 41.5951 23.5313C40.7013 22.8211 39.6631 22.5232 38.4564 22.5864L38.1224 22.6105L37.7071 22.7007L37.5777 22.7308Z" fill="#B73651"/>
<path d="M44.2073 19.2239C42.2784 17.948 39.2691 18.9832 38.5529 21.1589C38.5499 21.1679 38.5499 21.1799 38.5469 21.189C42.6184 20.6985 44.2073 19.2239 44.2073 19.2239Z" fill="#45B75A"/>
<path d="M44.2073 19.2227C44.2073 19.2227 42.6184 20.6942 38.5469 21.1877C40.3314 22.5509 43.6265 21.4104 44.2073 19.2227Z" fill="#45B75A"/>
<path opacity="0.58" d="M44.2073 19.2227C44.2073 19.2227 42.6184 20.6942 38.5469 21.1877C40.3314 22.5509 43.6265 21.4104 44.2073 19.2227Z" fill="#267A3D"/>
<path d="M38.5487 21.1859C38.5517 21.1769 38.5547 21.1678 38.5578 21.1588C38.7744 20.1868 38.8196 19.2238 38.6149 18.2188C38.5096 18.2308 38.4073 18.2398 38.305 18.2488C38.3381 18.8387 38.4193 21.2069 37.7031 22.7025L38.1184 22.6123C38.299 22.1308 38.4434 21.6583 38.5517 21.1859C38.5487 21.1889 38.5487 21.1859 38.5487 21.1859Z" fill="#45B75A"/>
<path opacity="0.58" d="M38.5487 21.1859C38.5517 21.1769 38.5547 21.1678 38.5578 21.1588C38.7744 20.1868 38.8196 19.2238 38.6149 18.2188C38.5096 18.2308 38.4073 18.2398 38.305 18.2488C38.3381 18.8387 38.4193 21.2069 37.7031 22.7025L38.1184 22.6123C38.299 22.1308 38.4434 21.6583 38.5517 21.1859C38.5487 21.1889 38.5487 21.1859 38.5487 21.1859Z" fill="#267A3D"/>
<path d="M60.6116 27.6984C60.1391 27.4688 59.5691 27.6614 59.3403 28.1281C59.3403 28.1281 36.7353 73.354 37.4216 73.7725C38.1678 74.2281 61.0466 28.954 61.0466 28.954C61.2753 28.491 61.0803 27.9281 60.6116 27.6984Z" fill="url(#paint9_linear_23941_7786)"/>
<path d="M52.062 21.3156C51.5895 21.086 51.0195 21.2786 50.7907 21.7453C50.7907 21.7453 28.1145 66.9378 28.8045 67.3564C29.5507 67.8119 52.497 22.5712 52.497 22.5712C52.7257 22.1045 52.5345 21.5416 52.062 21.3156Z" fill="url(#paint10_linear_23941_7786)"/>
<path d="M52.7584 29.1266C52.4846 28.9933 52.1509 29.1044 52.0159 29.3785C52.0159 29.3785 38.8421 55.7303 39.2434 55.9748C39.6784 56.2414 53.0096 29.8563 53.0096 29.8563C53.1484 29.5859 53.0321 29.26 52.7584 29.1266Z" fill="url(#paint11_linear_23941_7786)"/>
<path d="M44.0697 51.4209C44.4147 51.632 54.9747 30.7283 54.9747 30.7283C55.0797 30.5135 54.9897 30.2542 54.7722 30.1468C54.5547 30.0431 54.2922 30.132 54.1834 30.3468C54.1872 30.3468 43.7509 51.2246 44.0697 51.4209Z" fill="url(#paint12_linear_23941_7786)"/>
<path d="M53.3438 15.5469C53.4112 15.7024 53.5012 15.9135 53.6025 16.1728C53.5912 16.0024 53.5875 15.8358 53.5987 15.6654C53.5125 15.6284 53.4262 15.5876 53.3438 15.5469Z" fill="#90CA77"/>
<path d="M57.3444 20.0696L55.9044 22.6437L56.6431 19.9326C56.3769 19.8548 56.1144 19.7511 55.8631 19.6214C55.7581 19.5659 55.6569 19.5066 55.5556 19.4437L55.5256 20.3844L55.2969 19.2659C54.8919 18.9659 54.5544 18.6029 54.2881 18.1992C54.7869 20.0177 55.1394 22.3696 54.4531 24.3288C53.8081 26.177 52.8894 27.4585 52.4844 27.9659L54.2806 28.9029L58.9756 19.94C58.4506 20.0844 57.8956 20.1326 57.3444 20.0696Z" fill="#90CA77"/>
<path d="M61.8559 22.9289L61.0872 23.2104L61.3797 22.74C61.3234 22.7141 61.2672 22.6881 61.2109 22.6585C60.9297 22.5141 60.6747 22.34 60.4459 22.1474L58.2784 24.2029L59.9472 21.64C59.5722 21.1955 59.2984 20.6807 59.1334 20.1363L58.7884 20.7215L59.1222 20.0992C59.1034 20.0363 59.0809 19.977 59.0659 19.9141C59.0322 19.9252 59.0022 19.9289 58.9684 19.94L54.2734 28.9029L55.9534 29.7807C56.2009 29.1215 56.8122 27.7437 57.9859 26.3029C59.4147 24.5511 61.8859 23.5955 63.7797 23.0955C63.1459 23.1844 62.4897 23.1363 61.8559 22.9289Z" fill="#6FAF57"/>
<path d="M66.3838 22.5895L65.5437 22.4043C65.2287 22.6191 64.8875 22.7895 64.5312 22.9117C65.6225 22.6673 66.3838 22.5895 66.3838 22.5895Z" fill="#6FAF57"/>
<path d="M59.0662 19.9121C59.0587 19.8751 59.0475 19.8417 59.04 19.8047L58.9688 19.938C59.0025 19.9269 59.0362 19.9195 59.0662 19.9121Z" fill="#286F37"/>
<path d="M55.288 19.2643C55.3705 19.3272 55.4568 19.3865 55.5468 19.442C55.6443 19.505 55.7493 19.5643 55.8543 19.6198C56.1093 19.7532 56.3718 19.8569 56.6343 19.9309C56.8668 19.9976 57.103 20.042 57.3355 20.068C57.8868 20.1309 58.4418 20.0828 58.963 19.9346L59.0343 19.8013C58.8805 19.0754 58.9218 18.305 59.1805 17.5754C58.4343 17.6235 57.6655 17.4791 56.953 17.1087C56.4018 16.8235 55.9443 16.4272 55.588 15.9717C54.928 16.0309 54.2455 15.9346 53.6005 15.668C53.5893 15.8383 53.593 16.0087 53.6043 16.1754C53.653 16.8939 53.8818 17.5902 54.2793 18.1976C54.5455 18.6013 54.883 18.9643 55.288 19.2643Z" fill="#257F3E"/>
<path d="M55.5915 15.969C54.9465 15.1468 54.6277 14.1171 54.7065 13.0801C54.7477 12.5319 54.8977 11.9838 55.1677 11.4653C55.209 11.3875 55.2577 11.3134 55.3027 11.2393C55.1115 10.3282 55.2202 9.34675 55.6852 8.45787C55.8202 8.20231 55.9777 7.96527 56.154 7.75046C54.3277 7.31712 52.3777 8.14305 51.474 9.86898C50.4052 11.9134 51.204 14.4393 53.2665 15.5134C53.2927 15.5282 53.3227 15.5393 53.3527 15.5505C53.439 15.5912 53.5215 15.6319 53.6077 15.669C54.249 15.9319 54.9315 16.0282 55.5915 15.969Z" fill="#329946"/>
<path d="M55.3006 11.237C56.0094 10.0704 57.2131 9.36296 58.5031 9.24815C58.9831 9.2037 59.4744 9.24444 59.9544 9.37037C60.4831 8.4 61.3419 7.71852 62.3244 7.4C62.0431 7.12963 61.7169 6.88889 61.3531 6.7C59.5531 5.75926 57.3856 6.24444 56.1519 7.74815C55.9756 7.96296 55.8181 8.2 55.6831 8.45556C55.2181 9.34444 55.1094 10.3259 55.3006 11.237Z" fill="#3AB44A"/>
<path d="M59.1801 17.5741C58.9251 18.3074 58.8801 19.0741 59.0339 19.8L60.2226 17.5333C60.2039 17.4889 60.1889 17.4407 60.1701 17.3926C59.8514 17.4963 59.5176 17.5555 59.1801 17.5741Z" fill="#257F3E"/>
<path d="M70.8166 15.6406C70.7416 15.9073 70.6366 16.1703 70.5016 16.4258C69.8491 17.674 68.6453 18.4517 67.3366 18.6221C67.4041 19.3851 67.2653 20.174 66.8828 20.9036C66.5978 21.4443 66.2116 21.8962 65.7578 22.248C65.8628 22.3147 65.9678 22.3777 66.0803 22.4369C68.1391 23.511 70.6778 22.7258 71.7466 20.6814C72.6503 18.9591 72.2116 16.8925 70.8166 15.6406Z" fill="#217038"/>
<path d="M66.8762 20.9034C67.2587 20.1737 67.3975 19.3849 67.33 18.6219C67.3113 18.6256 67.2963 18.6293 67.2775 18.6293C66.46 19.5774 65.2675 20.096 64.0375 20.0774C63.3963 20.07 62.7513 19.9182 62.1438 19.5997C61.6788 19.3589 61.285 19.0404 60.955 18.6737C60.6475 18.3293 60.4 17.9441 60.22 17.5293L59.0312 19.796C59.0387 19.833 59.05 19.8663 59.0575 19.9034C59.0725 19.9663 59.095 20.0256 59.1138 20.0886C59.1175 20.0997 59.1213 20.1145 59.125 20.1256C59.29 20.6737 59.5637 21.1849 59.9387 21.6293C60.0925 21.8108 60.2537 21.9811 60.4375 22.1367C60.67 22.333 60.925 22.5034 61.2025 22.6478C61.2588 22.6774 61.315 22.7034 61.3713 22.7293C61.5288 22.8034 61.6863 22.8663 61.8475 22.9182C62.4813 23.1256 63.1375 23.1737 63.7712 23.0811C64.0262 23.0441 64.2775 22.9811 64.5175 22.8997C64.8738 22.7774 65.2188 22.6071 65.53 22.3923C65.6013 22.3441 65.6725 22.2923 65.74 22.2404C66.2012 21.896 66.5912 21.4441 66.8762 20.9034Z" fill="#257F3E"/>
<path d="M59.952 16.6184C59.9333 16.511 59.9145 16.3999 59.9033 16.2888C59.847 15.7036 59.9145 15.0999 60.117 14.5184C60.1845 14.3295 60.2595 14.1444 60.3533 13.9629C60.3533 13.9592 60.357 13.9555 60.357 13.9555C59.9295 13.4184 59.6445 12.7925 59.5208 12.1295C59.4195 11.5999 59.4195 11.0481 59.5358 10.5073C59.6108 10.1407 59.7345 9.77769 59.9183 9.42584C59.9295 9.40732 59.9408 9.39251 59.9483 9.37399C59.4683 9.24806 58.977 9.20732 58.497 9.25177C57.207 9.36658 56.0033 10.074 55.2945 11.2407C55.2495 11.3147 55.2008 11.3888 55.1595 11.4666C54.8895 11.9851 54.7395 12.5332 54.6983 13.0814C54.6233 14.1184 54.942 15.1518 55.5833 15.9703C55.9433 16.4295 56.4008 16.8221 56.9483 17.1073C57.6608 17.4777 58.4295 17.6221 59.1758 17.574C59.5133 17.5518 59.847 17.4925 60.1658 17.3925C60.072 17.1444 60.0008 16.8814 59.952 16.6184Z" fill="#33A749"/>
<path d="M60.1719 17.3954C60.1906 17.4435 60.2056 17.488 60.2244 17.5361L60.3256 17.3398C60.2769 17.3584 60.2244 17.3769 60.1719 17.3954Z" fill="#29803F"/>
<path d="M61.6763 15.0432C61.6388 15.0247 61.605 14.9988 61.5675 14.9766L61.5 15.1062C61.5563 15.084 61.6163 15.0655 61.6763 15.0432Z" fill="#29803F"/>
<path d="M60.1249 14.518C59.9224 15.0995 59.8512 15.6995 59.9112 16.2884C59.9224 16.3995 59.9374 16.5069 59.9599 16.618C60.0087 16.8847 60.0799 17.144 60.1774 17.3958C60.2299 17.381 60.2824 17.3588 60.3312 17.3403L60.5149 16.9921L61.5012 15.1106L61.5687 14.981C61.2649 14.8069 60.9874 14.6032 60.7474 14.3699C60.6124 14.2403 60.4849 14.0995 60.3687 13.9551C60.3687 13.9588 60.3649 13.9625 60.3649 13.9625C60.2674 14.144 60.1887 14.3292 60.1249 14.518Z" fill="#249045"/>
<path d="M67.3847 13.3145C67.3847 13.3182 67.3809 13.3219 67.3809 13.3219C67.6809 13.6959 67.9097 14.1182 68.0634 14.5626C68.4272 15.6108 68.3747 16.7922 67.8234 17.8478C67.6847 18.1108 67.5197 18.3552 67.3359 18.5774C67.3359 18.5922 67.3359 18.6071 67.3397 18.6219C68.6484 18.4515 69.8484 17.6737 70.5047 16.4256C70.6397 16.17 70.7447 15.9071 70.8197 15.6404C71.3559 13.7737 70.5159 11.7219 68.7122 10.7811C68.3972 10.6182 68.0709 10.5034 67.7447 10.4219C67.9659 11.3663 67.8684 12.3885 67.3847 13.3145Z" fill="#268340"/>
<path d="M67.2812 18.6354C67.3003 18.6315 67.3155 18.6277 67.3346 18.6277C67.3346 18.6125 67.3346 18.5973 67.3308 18.582C67.3155 18.5973 67.2965 18.6163 67.2812 18.6354Z" fill="#29803F"/>
<path d="M67.8203 17.8521C68.3716 16.7965 68.4241 15.6114 68.0603 14.5669C67.9066 14.1225 67.6778 13.7002 67.3778 13.3262C67.1941 13.6706 66.9691 13.978 66.7141 14.2484C66.2678 14.7188 65.7241 15.0706 65.1316 15.2891C64.3628 15.5706 63.5116 15.6299 62.6866 15.4299C62.6566 15.4225 62.6266 15.4151 62.5966 15.4077C62.3678 15.3484 62.1428 15.2669 61.9253 15.1632C61.8578 15.1336 61.7866 15.1039 61.7191 15.0706C61.7041 15.0632 61.6928 15.0558 61.6778 15.0484C61.6178 15.0706 61.5578 15.0891 61.4978 15.1151L60.5116 16.9965L60.3278 17.3447L60.2266 17.541C60.4066 17.9558 60.6541 18.341 60.9616 18.6854C61.2916 19.0521 61.6853 19.3706 62.1503 19.6114C62.7578 19.9262 63.4028 20.078 64.0441 20.0891C65.2703 20.1077 66.4666 19.5891 67.2841 18.641C67.2991 18.6225 67.3178 18.6077 67.3328 18.5891C67.5166 18.3595 67.6816 18.1151 67.8203 17.8521Z" fill="#249045"/>
<path d="M59.9534 9.373C59.9422 9.39152 59.9309 9.40633 59.9234 9.42485C59.7397 9.773 59.6159 10.136 59.5409 10.5063C59.4284 11.0471 59.4247 11.5989 59.5259 12.1286C59.6534 12.7915 59.9384 13.4174 60.3622 13.9545C60.4784 14.0989 60.6022 14.2397 60.7409 14.3693C60.9847 14.6026 61.2584 14.8063 61.5622 14.9804L61.7647 14.5915L62.4322 13.3137L62.9422 12.3397L63.2197 11.8137L63.5309 11.2174L64.3709 9.61003L65.4247 7.59892C64.4159 7.12485 63.3059 7.0804 62.3159 7.40263C61.3409 7.72114 60.4822 8.39892 59.9534 9.373Z" fill="#45B649"/>
<path d="M63.5313 11.2142L63.22 11.8105L62.9425 12.3364L62.4325 13.3105L61.765 14.5883L61.5625 14.9772C61.6 14.9994 61.6338 15.0216 61.6713 15.0439C61.6863 15.0513 61.6975 15.0587 61.7125 15.0661C61.78 15.1031 61.8475 15.129 61.9188 15.1587C62.14 15.2587 62.365 15.3401 62.59 15.4031C62.62 15.4105 62.65 15.4179 62.68 15.4253C63.505 15.6253 64.3563 15.5661 65.125 15.2846C65.7175 15.0661 66.2613 14.7142 66.7075 14.2439C66.9625 13.9735 67.1913 13.6661 67.3713 13.3216C67.3713 13.3179 67.375 13.3142 67.375 13.3142C67.8588 12.392 67.9563 11.3698 67.7313 10.4253C67.4575 9.28459 66.7113 8.25867 65.5825 7.66978C65.53 7.64385 65.4775 7.62163 65.425 7.5957L64.3713 9.60681L63.5313 11.2142ZM62.6463 15.292C62.6163 15.1364 62.5938 14.9772 62.5788 14.8179C62.6688 14.8068 62.7625 14.7994 62.8525 14.792C62.8 14.9624 62.7288 15.129 62.6463 15.292Z" fill="#45B649"/>
<path d="M62.6497 15.2912C62.7322 15.1283 62.7997 14.9616 62.8597 14.7949C62.7659 14.8023 62.6759 14.8097 62.5859 14.8208C62.5972 14.9764 62.6197 15.1357 62.6497 15.2912Z" fill="#45B649"/>
<defs>
<linearGradient id="paint0_linear_23941_7786" x1="59.7223" y1="62.9997" x2="70.5213" y2="65.4581" gradientUnits="userSpaceOnUse">
<stop offset="0.0825" stop-color="#ED3895" stop-opacity="0"/>
<stop offset="0.1887" stop-color="#EE3892" stop-opacity="0.1643"/>
<stop offset="0.2932" stop-color="#EE388D" stop-opacity="0.3257"/>
<stop offset="0.3969" stop-color="#EE3984" stop-opacity="0.486"/>
<stop offset="0.4996" stop-color="#EE397A" stop-opacity="0.6447"/>
<stop offset="0.6001" stop-color="#EE3B6C" stop-opacity="0.8"/>
<stop offset="1" stop-color="#F3E841"/>
</linearGradient>
<linearGradient id="paint1_linear_23941_7786" x1="55.5436" y1="54.2592" x2="63.9913" y2="56.3094" gradientUnits="userSpaceOnUse">
<stop stop-color="#ED3895" stop-opacity="0"/>
<stop offset="0.084" stop-color="#EE3891" stop-opacity="0.1423"/>
<stop offset="0.1866" stop-color="#EE388B" stop-opacity="0.3163"/>
<stop offset="0.2989" stop-color="#EE3981" stop-opacity="0.5066"/>
<stop offset="0.4174" stop-color="#EE3A73" stop-opacity="0.7074"/>
<stop offset="0.472" stop-color="#EE3B6C" stop-opacity="0.8"/>
<stop offset="1" stop-color="#F3E841"/>
</linearGradient>
<linearGradient id="paint2_linear_23941_7786" x1="60.4215" y1="53.3702" x2="66.7165" y2="54.7935" gradientUnits="userSpaceOnUse">
<stop stop-color="#ED3895" stop-opacity="0"/>
<stop offset="0.084" stop-color="#EE3891" stop-opacity="0.1423"/>
<stop offset="0.1866" stop-color="#EE388B" stop-opacity="0.3163"/>
<stop offset="0.2989" stop-color="#EE3981" stop-opacity="0.5066"/>
<stop offset="0.4174" stop-color="#EE3A73" stop-opacity="0.7074"/>
<stop offset="0.472" stop-color="#EE3B6C" stop-opacity="0.8"/>
<stop offset="1" stop-color="#F3E841"/>
</linearGradient>
<linearGradient id="paint3_linear_23941_7786" x1="63.1012" y1="54.1874" x2="69.3962" y2="55.6106" gradientUnits="userSpaceOnUse">
<stop stop-color="#ED3895" stop-opacity="0"/>
<stop offset="0.084" stop-color="#EE3891" stop-opacity="0.1423"/>
<stop offset="0.1866" stop-color="#EE388B" stop-opacity="0.3163"/>
<stop offset="0.2989" stop-color="#EE3981" stop-opacity="0.5066"/>
<stop offset="0.4174" stop-color="#EE3A73" stop-opacity="0.7074"/>
<stop offset="0.472" stop-color="#EE3B6C" stop-opacity="0.8"/>
<stop offset="1" stop-color="#F3E841"/>
</linearGradient>
<linearGradient id="paint4_linear_23941_7786" x1="20.7634" y1="56.0456" x2="30.9854" y2="58.4178" gradientUnits="userSpaceOnUse">
<stop offset="0.0825" stop-color="#ED3895" stop-opacity="0"/>
<stop offset="0.1887" stop-color="#EE3892" stop-opacity="0.1643"/>
<stop offset="0.2932" stop-color="#EE388D" stop-opacity="0.3257"/>
<stop offset="0.3969" stop-color="#EE3984" stop-opacity="0.486"/>
<stop offset="0.4996" stop-color="#EE397A" stop-opacity="0.6447"/>
<stop offset="0.6001" stop-color="#EE3B6C" stop-opacity="0.8"/>
<stop offset="1" stop-color="#F3E841"/>
</linearGradient>
<linearGradient id="paint5_linear_23941_7786" x1="13.1208" y1="53.4802" x2="23.3428" y2="55.8523" gradientUnits="userSpaceOnUse">
<stop offset="0.0825" stop-color="#ED3895" stop-opacity="0"/>
<stop offset="0.1887" stop-color="#EE3892" stop-opacity="0.1643"/>
<stop offset="0.2932" stop-color="#EE388D" stop-opacity="0.3257"/>
<stop offset="0.3969" stop-color="#EE3984" stop-opacity="0.486"/>
<stop offset="0.4996" stop-color="#EE397A" stop-opacity="0.6447"/>
<stop offset="0.6001" stop-color="#EE3B6C" stop-opacity="0.8"/>
<stop offset="1" stop-color="#F3E841"/>
</linearGradient>
<linearGradient id="paint6_linear_23941_7786" x1="25.7106" y1="45.4323" x2="30.4297" y2="46.5274" gradientUnits="userSpaceOnUse">
<stop stop-color="#ED3895" stop-opacity="0"/>
<stop offset="0.084" stop-color="#EE3891" stop-opacity="0.1423"/>
<stop offset="0.1866" stop-color="#EE388B" stop-opacity="0.3163"/>
<stop offset="0.2989" stop-color="#EE3981" stop-opacity="0.5066"/>
<stop offset="0.4174" stop-color="#EE3A73" stop-opacity="0.7074"/>
<stop offset="0.472" stop-color="#EE3B6C" stop-opacity="0.8"/>
<stop offset="1" stop-color="#F3E841"/>
</linearGradient>
<linearGradient id="paint7_linear_23941_7786" x1="24.0548" y1="43.8023" x2="28.7738" y2="44.8974" gradientUnits="userSpaceOnUse">
<stop stop-color="#ED3895" stop-opacity="0"/>
<stop offset="0.084" stop-color="#EE3891" stop-opacity="0.1423"/>
<stop offset="0.1866" stop-color="#EE388B" stop-opacity="0.3163"/>
<stop offset="0.2989" stop-color="#EE3981" stop-opacity="0.5066"/>
<stop offset="0.4174" stop-color="#EE3A73" stop-opacity="0.7074"/>
<stop offset="0.472" stop-color="#EE3B6C" stop-opacity="0.8"/>
<stop offset="1" stop-color="#F3E841"/>
</linearGradient>
<linearGradient id="paint8_linear_23941_7786" x1="19.6666" y1="40.4684" x2="24.3857" y2="41.5635" gradientUnits="userSpaceOnUse">
<stop stop-color="#ED3895" stop-opacity="0"/>
<stop offset="0.084" stop-color="#EE3891" stop-opacity="0.1423"/>
<stop offset="0.1866" stop-color="#EE388B" stop-opacity="0.3163"/>
<stop offset="0.2989" stop-color="#EE3981" stop-opacity="0.5066"/>
<stop offset="0.4174" stop-color="#EE3A73" stop-opacity="0.7074"/>
<stop offset="0.472" stop-color="#EE3B6C" stop-opacity="0.8"/>
<stop offset="1" stop-color="#F3E841"/>
</linearGradient>
<linearGradient id="paint9_linear_23941_7786" x1="42.6923" y1="51.1844" x2="55.1599" y2="54.1139" gradientUnits="userSpaceOnUse">
<stop offset="0.0825" stop-color="#ED3895" stop-opacity="0"/>
<stop offset="0.1887" stop-color="#EE3892" stop-opacity="0.1643"/>
<stop offset="0.2932" stop-color="#EE388D" stop-opacity="0.3257"/>
<stop offset="0.3969" stop-color="#EE3984" stop-opacity="0.486"/>
<stop offset="0.4996" stop-color="#EE397A" stop-opacity="0.6447"/>
<stop offset="0.6001" stop-color="#EE3B6C" stop-opacity="0.8"/>
<stop offset="1" stop-color="#F3E841"/>
</linearGradient>
<linearGradient id="paint10_linear_23941_7786" x1="34.1049" y1="44.7374" x2="46.5688" y2="47.6863" gradientUnits="userSpaceOnUse">
<stop offset="0.0825" stop-color="#ED3895" stop-opacity="0"/>
<stop offset="0.1887" stop-color="#EE3892" stop-opacity="0.1643"/>
<stop offset="0.2932" stop-color="#EE388D" stop-opacity="0.3257"/>
<stop offset="0.3969" stop-color="#EE3984" stop-opacity="0.486"/>
<stop offset="0.4996" stop-color="#EE397A" stop-opacity="0.6447"/>
<stop offset="0.6001" stop-color="#EE3B6C" stop-opacity="0.8"/>
<stop offset="1" stop-color="#F3E841"/>
</linearGradient>
<linearGradient id="paint11_linear_23941_7786" x1="42.3154" y1="42.8194" x2="49.5804" y2="44.5264" gradientUnits="userSpaceOnUse">
<stop stop-color="#ED3895" stop-opacity="0"/>
<stop offset="0.084" stop-color="#EE3891" stop-opacity="0.1423"/>
<stop offset="0.1866" stop-color="#EE388B" stop-opacity="0.3163"/>
<stop offset="0.2989" stop-color="#EE3981" stop-opacity="0.5066"/>
<stop offset="0.4174" stop-color="#EE3A73" stop-opacity="0.7074"/>
<stop offset="0.472" stop-color="#EE3B6C" stop-opacity="0.8"/>
<stop offset="1" stop-color="#F3E841"/>
</linearGradient>
<linearGradient id="paint12_linear_23941_7786" x1="46.5007" y1="41.0003" x2="52.2566" y2="42.3527" gradientUnits="userSpaceOnUse">
<stop stop-color="#ED3895" stop-opacity="0"/>
<stop offset="0.084" stop-color="#EE3891" stop-opacity="0.1423"/>
<stop offset="0.1866" stop-color="#EE388B" stop-opacity="0.3163"/>
<stop offset="0.2989" stop-color="#EE3981" stop-opacity="0.5066"/>
<stop offset="0.4174" stop-color="#EE3A73" stop-opacity="0.7074"/>
<stop offset="0.472" stop-color="#EE3B6C" stop-opacity="0.8"/>
<stop offset="1" stop-color="#F3E841"/>
</linearGradient>
</defs>
</svg>
